<svg xmlns="http://www.w3.org/2000/svg" width="28" height="28" viewBox="0 0 28 28" fill="none">
  <path d="M26.4377 8.8353L16.6798 4.37002C15.6632 3.91153 14.8359 3.69225 14.0086 3.71218C13.1913 3.69225 12.364 3.91153 11.3374 4.37002L1.58946 8.8353C0.951561 9.1244 0.642578 9.63268 0.642578 10.141C0.642578 10.6493 0.951561 11.1477 1.58946 11.4468L5.69596 13.3206L12.0052 10.3603C11.9454 10.2906 11.9254 10.2108 11.9254 10.141C11.9254 9.51309 12.982 9.03466 14.0485 9.03466C15.1249 9.03466 16.1615 9.51309 16.1615 10.141C16.1615 10.7889 15.1249 11.2773 14.0485 11.2773C13.7196 11.2773 13.3907 11.2274 13.1016 11.1477L7.08139 13.9684L11.3374 15.922C12.364 16.3904 13.1913 16.5898 14.0086 16.5798C14.8359 16.5898 15.6632 16.3904 16.6798 15.922L26.4377 11.4468C27.0756 11.1477 27.3846 10.6493 27.3846 10.141C27.3846 9.63268 27.0756 9.1244 26.4377 8.8353ZM7.04153 15.4436V21.5037C8.71602 22.5203 11.1082 23.1382 14.0086 23.1382C19.8893 23.1382 23.6768 20.6166 23.6768 17.6364V14.2076L17.2479 17.148C16.0817 17.6862 15.0253 17.9553 14.0086 17.9454C13.0019 17.9553 11.9354 17.6862 10.7692 17.148L7.04153 15.4436ZM4.35038 14.2076V17.6364C4.35038 18.5035 4.84874 19.5799 5.74579 20.497V14.8556L4.35038 14.2076ZM5.74579 23.816H7.04153V21.5037C6.54317 21.2046 6.10461 20.8658 5.74579 20.497V23.816ZM4.95838 23.8859V26.5072C4.95838 27.2946 5.46671 27.8029 6.25412 27.8029H6.52323C7.31064 27.8029 7.81897 27.2946 7.81897 26.5072V23.8859C7.81897 23.0984 7.31064 22.5901 6.52323 22.5901H6.25412C5.46671 22.5901 4.95838 23.0984 4.95838 23.8859Z" fill="#262626"/>
</svg>