<svg xmlns="http://www.w3.org/2000/svg" width="21" height="34" viewBox="0 0 21 34" fill="none">
  <path d="M6.77797 32.4186H14.4496C18.819 32.4186 20.9786 30.2088 20.9409 25.7892C20.8907 20.7418 20.8656 17.0755 20.74 14.3257C20.376 6.23981 18.1033 3.86677 10.62 3.86677C3.13679 3.86677 0.851628 6.23981 0.48751 14.3257C0.361952 17.0755 0.33684 20.7418 0.286617 25.7892C0.24895 30.2088 2.40855 32.4186 6.77797 32.4186ZM6.41385 27.434C5.33405 27.434 4.64348 26.7309 4.64348 25.6762V19.1974C4.64348 18.1302 5.33405 17.427 6.41385 17.427H14.8263C15.8935 17.427 16.5841 18.1302 16.5841 19.1974V25.6762C16.5841 26.7309 15.8935 27.434 14.8263 27.434H6.41385ZM4.64348 22.2611H16.5841V20.7669H4.64348V22.2611ZM10.62 0.928711C8.20933 0.928711 6.51429 2.56097 6.51429 4.78335H8.28467C8.28467 3.56543 9.2389 2.69908 10.62 2.69908C11.9886 2.69908 12.9555 3.56543 12.9555 4.78335H14.7258C14.7258 2.56097 13.0182 0.928711 10.62 0.928711Z" fill="#262626"/>
</svg>