<svg xmlns="http://www.w3.org/2000/svg" width="30" height="28" viewBox="0 0 30 28" fill="none">
  <g clip-path="url(#clip0_141_1138)">
    <path d="M7.17076 1.0256C6.55552 2.4444 6.26674 3.86321 6.26674 5.24435C6.26674 9.82722 9.50613 13.5814 14.5535 13.5814C19.601 13.5814 22.8404 9.82722 22.8404 5.24435C22.8404 3.86321 22.5516 2.4444 21.949 1.0256C21.6728 0.422921 20.957 0.335031 20.4799 0.824707L17.6674 3.68743L15.2692 0.586147C14.88 0.0839145 14.2271 0.0839145 13.8505 0.586147L11.4523 3.68743L8.62723 0.824707C8.15011 0.335031 7.43443 0.422921 7.17076 1.0256ZM13.5491 26.3633C13.5491 26.9282 13.9886 27.3049 14.5535 27.3049C21.0449 27.3049 27.0089 23.2996 28.9677 17.6746C29.2439 16.9086 28.955 16.419 28.1389 16.419C21.7229 16.419 17.1024 20.1857 15.2442 24.9444L15.5706 25.3713V12.3133H13.5491V26.3633ZM11.829 21.5669C9.46847 18.5033 5.68917 16.419 0.930524 16.419C0.114396 16.419 -0.174387 16.9086 0.10184 17.6746C1.78431 22.5463 6.45508 26.2125 11.9294 27.0789C11.8666 26.8654 11.829 26.6143 11.829 26.3633V21.5669Z" fill="#262626"/>
  </g>
  <defs>
    <clipPath id="clip0_141_1138">
      <rect width="29.0695" height="27.2336" fill="white" transform="translate(0 0.0712891)"/>
    </clipPath>
  </defs>
</svg>