<svg xmlns="http://www.w3.org/2000/svg" width="18" height="31" viewBox="0 0 18 31" fill="none">
  <path d="M4.73204 29.1169C5.78672 29.1169 6.43963 28.5268 6.42707 27.4973L6.17596 13.397C6.17596 12.9576 6.3643 12.6312 6.75353 12.4554C8.41089 11.7271 9.12657 10.9613 9.03868 8.76396L8.68712 1.05469C8.66201 0.502232 8.33555 0.188337 7.82076 0.188337C7.33109 0.188337 7.02975 0.514788 7.02975 1.0798L7.11764 8.57562C7.11764 9.01507 6.84141 9.2913 6.42707 9.2913C6.00017 9.2913 5.69883 9.02762 5.69883 8.61328L5.57328 0.853795C5.56073 0.313895 5.24683 0 4.73204 0C4.21725 0 3.91591 0.313895 3.90335 0.853795L3.77779 8.61328C3.77779 9.02762 3.47645 9.2913 3.04956 9.2913C2.63522 9.2913 2.34644 9.01507 2.34644 8.57562L2.43433 1.0798C2.43433 0.514788 2.14555 0.188337 1.64331 0.188337C1.12852 0.188337 0.802072 0.502232 0.776961 1.05469L0.437954 8.76396C0.337507 10.9613 1.05319 11.7271 2.71055 12.4554C3.09978 12.6312 3.28812 12.9576 3.28812 13.397L3.04956 27.4973C3.03701 28.5268 3.67735 29.1169 4.73204 29.1169ZM14.5507 18.1682L14.287 27.4345C14.2494 28.5268 14.9147 29.1169 15.9569 29.1169C17.0242 29.1169 17.6771 28.577 17.6771 27.5726V0.941685C17.6771 0.301339 17.2376 0 16.7856 0C16.3085 0 15.9946 0.251116 15.5929 0.841239C13.5713 3.67885 12.2405 8.98995 12.2405 14.0123V14.6275C12.2405 15.4938 12.5543 16.1342 13.1821 16.5485L13.9229 17.0508C14.3749 17.3646 14.5757 17.7163 14.5507 18.1682Z" fill="#262626"/>
</svg>