<svg xmlns="http://www.w3.org/2000/svg" width="29" height="17" viewBox="0 0 29 17" fill="none">
  <path d="M1.64921 14.4189C2.5493 14.4189 3.23825 13.7299 3.23825 12.8521V4.45132C3.23825 3.56234 2.5493 2.86228 1.64921 2.86228C0.760243 2.86228 0.0712891 3.56234 0.0712891 4.45132V12.8521C0.0712891 13.7299 0.760243 14.4189 1.64921 14.4189ZM6.9275 16.8748C8.40541 16.8748 9.43885 15.8857 9.43885 14.4856V2.82894C9.43885 1.41769 8.40541 0.428711 6.9275 0.428711C5.46068 0.428711 4.42726 1.41769 4.42726 2.82894V14.4856C4.42726 15.8857 5.46068 16.8748 6.9275 16.8748ZM10.7279 10.7964H17.6285V6.50707H10.7279V10.7964ZM21.4288 16.8748C22.9068 16.8748 23.9402 15.8857 23.9402 14.4856V2.82894C23.9402 1.41769 22.9068 0.428711 21.4288 0.428711C19.9621 0.428711 18.9286 1.41769 18.9286 2.82894V14.4856C18.9286 15.8857 19.9621 16.8748 21.4288 16.8748ZM26.5961 14.4189C27.485 14.4189 28.185 13.7299 28.185 12.8521V4.45132C28.185 3.56234 27.485 2.86228 26.5961 2.86228C25.7071 2.86228 25.0181 3.56234 25.0181 4.45132V12.8521C25.0181 13.7299 25.7071 14.4189 26.5961 14.4189Z" fill="#262626"/>
</svg>