<svg xmlns="http://www.w3.org/2000/svg" width="27" height="28" viewBox="0 0 27 28" fill="none">
  <path d="M25.9377 8.83579L16.1798 4.37051C15.1632 3.91202 14.3359 3.69274 13.5086 3.71267C12.6913 3.69274 11.864 3.91202 10.8374 4.37051L1.08946 8.83579C0.451561 9.12488 0.142578 9.63316 0.142578 10.1415C0.142578 10.6498 0.451561 11.1482 1.08946 11.4473L5.19596 13.3211L11.5052 10.3608C11.4454 10.2911 11.4254 10.2113 11.4254 10.1415C11.4254 9.51358 12.482 9.03515 13.5485 9.03515C14.6249 9.03515 15.6615 9.51358 15.6615 10.1415C15.6615 10.7894 14.6249 11.2778 13.5485 11.2778C13.2196 11.2778 12.8907 11.2279 12.6016 11.1482L6.58139 13.9689L10.8374 15.9225C11.864 16.3909 12.6913 16.5903 13.5086 16.5803C14.3359 16.5903 15.1632 16.3909 16.1798 15.9225L25.9377 11.4473C26.5756 11.1482 26.8846 10.6498 26.8846 10.1415C26.8846 9.63316 26.5756 9.12488 25.9377 8.83579ZM6.54153 15.4441V21.5042C8.21602 22.5208 10.6082 23.1387 13.5086 23.1387C19.3893 23.1387 23.1768 20.6171 23.1768 17.6369V14.2081L16.7479 17.1485C15.5817 17.6867 14.5253 17.9558 13.5086 17.9459C12.5019 17.9558 11.4354 17.6867 10.2692 17.1485L6.54153 15.4441ZM3.85038 14.2081V17.6369C3.85038 18.504 4.34874 19.5804 5.24579 20.4975V14.856L3.85038 14.2081ZM5.24579 23.8165H6.54153V21.5042C6.04317 21.2051 5.60461 20.8663 5.24579 20.4975V23.8165ZM4.45838 23.8864V26.5077C4.45838 27.2951 4.96671 27.8034 5.75412 27.8034H6.02323C6.81064 27.8034 7.31897 27.2951 7.31897 26.5077V23.8864C7.31897 23.0989 6.81064 22.5906 6.02323 22.5906H5.75412C4.96671 22.5906 4.45838 23.0989 4.45838 23.8864Z" fill="#262626"/>
</svg>