<svg xmlns="http://www.w3.org/2000/svg" width="22" height="27" viewBox="0 0 22 27" fill="none">
  <path d="M4.17843 26.9909H17.5127C20.0992 26.9909 21.405 25.6725 21.405 23.0609V4.01381C21.405 1.38965 20.1117 0.0712891 17.5127 0.0712891H14.3236C13.8966 0.0712891 13.6078 0.372628 13.6078 0.824637C13.6078 0.887417 13.6078 0.950195 13.6078 1.00042C13.6078 2.63267 12.5029 3.61203 10.8456 3.61203C9.18819 3.61203 8.08328 2.63267 8.08328 1.00042C8.08328 0.950195 8.08328 0.887417 8.08328 0.824637C8.08328 0.372628 7.7945 0.0712891 7.36761 0.0712891H4.17843C1.57938 0.0712891 0.286133 1.38965 0.286133 4.01381V23.0609C0.286133 25.6725 1.59194 26.9909 4.17843 26.9909ZM6.08691 9.42536C5.63491 9.42536 5.30845 9.08635 5.30845 8.63435C5.30845 8.20745 5.63491 7.86844 6.08691 7.86844H15.6168C16.0563 7.86844 16.3826 8.20745 16.3826 8.63435C16.3826 9.08635 16.0563 9.42536 15.6168 9.42536H6.08691ZM6.08691 13.8826C5.63491 13.8826 5.30845 13.5436 5.30845 13.1168C5.30845 12.6773 5.63491 12.3383 6.08691 12.3383H10.5944C11.0465 12.3383 11.373 12.6773 11.373 13.1168C11.373 13.5436 11.0465 13.8826 10.5944 13.8826H6.08691Z" fill="#262626"/>
</svg>