<svg width="21" height="20" viewBox="0 0 21 20" fill="none" xmlns="http://www.w3.org/2000/svg">
<g id="Icon">
<path id="Union" d="M6.61236 5.21967C6.31947 4.92678 5.84459 4.92678 5.5517 5.21967C5.25881 5.51256 5.25881 5.98744 5.5517 6.28033L9.27137 10L5.5517 13.7197C5.25881 14.0126 5.25881 14.4874 5.5517 14.7803C5.84459 15.0732 6.31947 15.0732 6.61236 14.7803L10.332 11.0607L14.0517 14.7803C14.3446 15.0732 14.8195 15.0732 15.1124 14.7803C15.4053 14.4874 15.4053 14.0126 15.1124 13.7197L11.3927 10L15.1124 6.28033C15.4053 5.98744 15.4053 5.51256 15.1124 5.21967C14.8195 4.92678 14.3446 4.92678 14.0517 5.21967L10.332 8.93934L6.61236 5.21967Z" fill="#262626"/>
</g>
</svg>
