<svg xmlns="http://www.w3.org/2000/svg" width="30" height="28" viewBox="0 0 30 28" fill="none">
  <g clip-path="url(#clip0_141_2741)">
    <path d="M7.17076 1.02511C6.55552 2.44391 6.26674 3.86272 6.26674 5.24386C6.26674 9.82673 9.50613 13.5809 14.5535 13.5809C19.601 13.5809 22.8404 9.82673 22.8404 5.24386C22.8404 3.86272 22.5516 2.44391 21.949 1.02511C21.6728 0.422433 20.957 0.334543 20.4799 0.824219L17.6674 3.68694L15.2692 0.585659C14.88 0.0834263 14.2271 0.0834263 13.8505 0.585659L11.4523 3.68694L8.62723 0.824219C8.15011 0.334543 7.43443 0.422433 7.17076 1.02511ZM13.5491 26.3628C13.5491 26.9277 13.9886 27.3044 14.5535 27.3044C21.0449 27.3044 27.0089 23.2991 28.9677 17.6741C29.2439 16.9082 28.955 16.4185 28.1389 16.4185C21.7229 16.4185 17.1024 20.1852 15.2442 24.9439L15.5706 25.3708V12.3128H13.5491V26.3628ZM11.829 21.5664C9.46847 18.5028 5.68917 16.4185 0.930524 16.4185C0.114396 16.4185 -0.174387 16.9082 0.10184 17.6741C1.78431 22.5458 6.45508 26.212 11.9294 27.0784C11.8666 26.8649 11.829 26.6138 11.829 26.3628V21.5664Z" fill="#262626"/>
  </g>
  <defs>
    <clipPath id="clip0_141_2741">
      <rect width="29.0695" height="27.2336" fill="white" transform="translate(0 0.0712891)"/>
    </clipPath>
  </defs>
</svg>