<svg xmlns="http://www.w3.org/2000/svg" width="34" height="27" viewBox="0 0 34 27" fill="none">
  <path d="M16.4765 20.0772H17.6544C24.1979 20.0772 28.6082 15.659 28.6082 8.80213V6.1407C28.6082 3.02038 23.9492 0.896484 17.0654 0.896484C10.1817 0.896484 5.52271 3.02038 5.52271 6.1407V8.80213C5.52271 15.4229 9.91994 20.0772 16.4765 20.0772ZM17.0654 9.33966C11.5951 9.33966 7.56429 7.94994 7.56429 6.1407C7.56429 4.34455 11.5951 2.94172 17.0654 2.94172C22.5489 2.94172 26.5797 4.34455 26.5797 6.1407C26.5797 7.94994 22.5489 9.33966 17.0654 9.33966ZM27.1948 14.2823H28.2286C31.147 14.2823 32.9007 12.7484 32.9007 10.205C32.9007 7.67462 31.134 6.12759 28.2286 6.12759H27.391V8.15971H28.2286C29.8907 8.15971 30.8591 8.92012 30.8591 10.205C30.8591 11.4767 29.8907 12.2502 28.2286 12.2502H27.1948V14.2823ZM17.0001 26.3572C26.9461 26.3572 34 23.5252 34 19.4085C34 17.809 32.9138 16.4062 31.0031 15.2787C30.2179 15.6065 29.3542 15.7901 28.3726 15.8163C26.2918 19.4479 22.4834 21.6111 17.6544 21.6111H16.4765C11.0978 21.6111 6.89684 18.753 5.02541 14.2823C1.84526 15.5148 0 17.2977 0 19.4085C0 23.5252 7.06697 26.3572 17.0001 26.3572Z" fill="#1C1C1E"/>
</svg>