<svg xmlns="http://www.w3.org/2000/svg" width="34" height="20" viewBox="0 0 34 20" fill="none">
  <path d="M22.3792 18.5786L12.1558 1.1776C11.7275 0.446704 11.1277 0.231183 10.4423 0.296776C9.88072 0.36237 9.13829 0.652855 8.45289 1.04642C6.07317 2.40514 5.16887 4.49476 2.85575 5.80663C1.84675 6.37823 0.970998 6.59375 0.552164 6.82801C0.0571774 7.10912 -0.161759 7.57765 0.133329 8.09302L3.95996 14.6243C4.38831 15.3552 4.99752 15.5613 5.67337 15.4957C6.23499 15.4301 6.98699 15.1396 7.66283 14.7367C10.0521 13.378 10.9468 11.2977 13.26 9.9765C14.031 9.54543 14.7354 9.31122 15.1828 9.1425L21.1322 19.2907C21.3321 19.6375 21.7604 19.7499 22.1126 19.5532C22.4458 19.3564 22.5695 18.916 22.3792 18.5786ZM17.6578 8.30858L18.4859 9.71415L18.819 9.1425C19.2664 9.31122 19.9613 9.54543 20.7419 9.9765C23.0455 11.2977 23.9498 13.378 26.3295 14.7367C27.0149 15.1396 27.7574 15.4301 28.319 15.4957C29.0044 15.5613 29.6041 15.3552 30.0324 14.6243L33.8686 8.09302C34.1637 7.57765 33.9352 7.10912 33.4498 6.82801C33.0309 6.59375 32.1456 6.37823 31.1366 5.80663C28.8235 4.49476 27.9287 2.40514 25.549 1.04642C24.8637 0.652855 24.1116 0.36237 23.5595 0.296776C22.8741 0.231183 22.2745 0.446704 21.8461 1.1776L17.6578 8.30858ZM16.3442 13.3686L15.5064 11.9536L11.6228 18.5786C11.4228 18.916 11.5561 19.3564 11.8893 19.5532C12.2415 19.7499 12.6698 19.6375 12.8602 19.2907L16.3442 13.3686Z" fill="#262626"/>
</svg>