<svg xmlns="http://www.w3.org/2000/svg" width="34" height="32" viewBox="0 0 34 32" fill="none">
  <path d="M0 12.908C0 14.2599 0.825335 15.0852 2.17718 15.0852H31.135C32.4869 15.0852 33.3264 14.2599 33.3264 12.908V12.2108C33.3264 10.8731 32.4869 10.0194 31.135 10.0194H2.17718C0.825335 10.0194 0 10.8731 0 12.2108V12.908ZM9.05022 30.7097H24.2762C27.5633 30.7097 28.5879 28.7886 29.0005 26.7252L30.9785 17.0346H2.36216L4.32589 26.7252C4.73856 28.7886 5.76311 30.7097 9.05022 30.7097ZM9.97516 28.262C9.43443 28.3475 9.036 28.0629 8.95061 27.579L7.72684 20.4214C7.64146 19.9376 7.95452 19.5534 8.49525 19.4537C9.036 19.3826 9.44866 19.653 9.53404 20.1368L10.7436 27.2945C10.8147 27.7783 10.5301 28.1625 9.97516 28.262ZM14.4861 28.2478C13.9453 28.2764 13.5468 27.949 13.5184 27.451L13.0488 20.3788C13.0204 19.8807 13.3761 19.5249 13.9026 19.4823C14.4575 19.4395 14.8275 19.7811 14.8703 20.2791L15.3398 27.3513C15.3682 27.8494 15.0126 28.2194 14.4861 28.2478ZM18.8689 28.2478C18.3282 28.2194 17.9724 27.8494 18.0008 27.3513L18.4704 20.2791C18.5131 19.7811 18.8831 19.4395 19.438 19.4823C19.9646 19.5249 20.3203 19.8807 20.2918 20.3788L19.8222 27.451C19.7938 27.949 19.3954 28.2764 18.8689 28.2478ZM23.3513 28.262C22.7963 28.1625 22.5118 27.7783 22.5829 27.2945L23.7925 20.1368C23.8778 19.653 24.2904 19.3826 24.8312 19.4537C25.3719 19.5534 25.6849 19.966 25.5996 20.4498L24.3758 27.579C24.2904 28.0629 23.8778 28.3475 23.3513 28.262ZM4.58203 10.6312H7.42802L12.437 1.93677C12.8212 1.25373 12.5081 0.656074 11.9816 0.371476C11.4693 0.101107 10.7863 0.143797 10.4021 0.784143L4.58203 10.6312ZM25.8984 10.6312H28.7444L22.9244 0.784143C22.5544 0.158027 21.8714 0.115337 21.3448 0.371476C20.8325 0.656074 20.5053 1.25373 20.8895 1.93677L25.8984 10.6312Z" fill="#262626"/>
</svg>