<svg xmlns="http://www.w3.org/2000/svg" width="20" height="36" viewBox="0 0 20 36" fill="none">
  <path d="M5.16226 32.9992C6.35757 32.9992 7.09753 32.3304 7.0833 31.1636L6.79871 15.1833C6.79871 14.6853 7.01215 14.3153 7.45328 14.1161C9.33162 13.2907 10.1427 12.4228 10.0431 9.93248L9.64469 1.19531C9.61623 0.569196 9.24625 0.213448 8.66282 0.213448C8.10785 0.213448 7.76633 0.583427 7.76633 1.22377L7.86594 9.71903C7.86594 10.2171 7.55289 10.5301 7.0833 10.5301C6.59948 10.5301 6.25796 10.2313 6.25796 9.76172L6.11567 0.967634C6.10144 0.355748 5.74569 0 5.16226 0C4.57883 0 4.23732 0.355748 4.22308 0.967634L4.08078 9.76172C4.08078 10.2313 3.73926 10.5301 3.25546 10.5301C2.78587 10.5301 2.45858 10.2171 2.45858 9.71903L2.55819 1.22377C2.55819 0.583427 2.2309 0.213448 1.66171 0.213448C1.07828 0.213448 0.708298 0.569196 0.679839 1.19531L0.295632 9.93248C0.181792 12.4228 0.992897 13.2907 2.87124 14.1161C3.31237 14.3153 3.52582 14.6853 3.52582 15.1833L3.25546 31.1636C3.24123 32.3304 3.96694 32.9992 5.16226 32.9992ZM16.29 20.5906L15.9912 31.0924C15.9486 32.3304 16.7027 32.9992 17.8838 32.9992C19.0933 32.9992 19.8333 32.3873 19.8333 31.2489V1.06724C19.8333 0.341518 19.3352 0 18.8229 0C18.2822 0 17.9265 0.284598 17.4712 0.953404C15.1801 4.16936 13.6718 10.1886 13.6718 15.8806V16.5778C13.6718 17.5597 14.0275 18.2854 14.739 18.755L15.5786 19.3243C16.0908 19.6799 16.3185 20.0785 16.29 20.5906Z" fill="#262626"/>
</svg>