<svg xmlns="http://www.w3.org/2000/svg" width="30" height="32" viewBox="0 0 30 32" fill="none">
  <path d="M1.33587 18.4712H2.63079V15.6109H1.33587V18.4712ZM8.06661 31.8757C9.84536 31.8757 10.6707 30.2393 9.70306 28.5032L4.38107 19.0973C3.92572 18.3145 3.24268 17.9589 2.38888 17.9589C1.05127 17.9589 0.325544 18.9549 0.439383 20.2783C0.723981 21.9717 1.86238 24.6753 3.24268 26.8953C5.41986 30.5808 6.68631 31.8757 8.06661 31.8757ZM28.8139 18.4712V15.6109H27.5189V18.4712H28.8139ZM22.0831 31.8757C23.4633 31.8757 24.7298 30.5808 26.9071 26.8953C28.2731 24.6753 29.4257 21.9717 29.7104 20.2783C29.8241 18.9549 29.0985 17.9589 27.7608 17.9589C26.9071 17.9589 26.224 18.3145 25.7687 19.0973L20.4467 28.5032C19.4648 30.2393 20.3044 31.8757 22.0831 31.8757ZM0.852051 15.369C0.852051 16.0377 1.27895 16.4505 1.94775 16.4505C2.61656 16.4505 3.015 16.0377 3.015 15.369C3.08615 7.69908 7.65395 2.83245 15.0678 2.83245C22.4958 2.83245 27.0494 7.69908 27.1204 15.369C27.1204 16.0377 27.5331 16.4505 28.202 16.4505C28.8708 16.4505 29.2834 16.0377 29.2834 15.369C29.2834 6.64607 23.9187 0.655273 15.0678 0.655273C6.21673 0.655273 0.852051 6.64607 0.852051 15.369Z" fill="#262626"/>
  <path d="M12.3213 29.0584C13.2319 28.5319 13.474 27.3508 12.8905 26.3404L8.09501 17.8737C7.51158 16.8633 6.37319 16.4933 5.4767 17.0198C4.92174 17.3187 4.79367 17.8452 5.07827 18.3433L10.9695 28.7026C11.2683 29.2149 11.7806 29.3572 12.3213 29.0584ZM17.8283 29.0584C18.369 29.3572 18.8813 29.2149 19.1659 28.7026L25.057 18.3433C25.3559 17.8452 25.2279 17.3187 24.6728 17.0198C23.7621 16.4933 22.6379 16.8633 22.0404 17.8737L17.2448 26.3404C16.6615 27.3508 16.9175 28.5319 17.8283 29.0584ZM6.7574 7.78467C9.0911 6.51821 11.8232 5.89209 15.0677 5.89209C18.3264 5.89209 21.0585 6.51821 23.3779 7.78467C21.5139 5.39404 18.8529 4.19873 15.0677 4.19873C11.2967 4.19873 8.63574 5.39404 6.7574 7.78467Z" fill="#262626"/>
</svg>