<svg xmlns="http://www.w3.org/2000/svg" width="25" height="30" viewBox="0 0 25 30" fill="none">
  <path d="M12.4975 29.1587C12.7252 29.1587 13.0809 29.0733 13.4367 28.8883C21.5334 24.6478 24.1376 22.5275 24.1376 17.419V6.68966C24.1376 5.22398 23.5114 4.75439 22.3162 4.25634C20.6513 3.57331 15.3293 1.63804 13.6786 1.06885C13.2944 0.940779 12.8959 0.869629 12.4975 0.869629C12.099 0.869629 11.7006 0.955009 11.3306 1.06885C9.66574 1.60958 4.34375 3.58754 2.67885 4.25634C1.49777 4.74016 0.857422 5.22398 0.857422 6.68966V17.419C0.857422 22.5275 3.6038 24.4059 11.5583 28.8883C11.9283 29.0876 12.2698 29.1587 12.4975 29.1587ZM6.0798 15.4837C6.0798 15.313 6.16517 15.0995 6.32171 14.9146L14.3616 4.82554C14.9735 4.05713 15.9981 4.56941 15.6281 5.52281L12.9813 12.6378H17.9475C18.3317 12.6378 18.6164 12.9081 18.6164 13.2924C18.6164 13.4631 18.531 13.6766 18.3745 13.8615L10.3345 23.9506C9.72265 24.719 8.71233 24.2066 9.06808 23.2675L11.7291 16.1383H6.7486C6.37863 16.1383 6.0798 15.8679 6.0798 15.4837Z" fill="#262626"/>
</svg>