<svg xmlns="http://www.w3.org/2000/svg" width="23" height="35" viewBox="0 0 23 35" fill="none">
  <path d="M0.0722656 21.4161C0.0722656 22.6256 0.883371 23.4225 2.16407 23.4225H9.86244V30.0678C9.86244 32.2451 10.7732 34.0523 11.1289 34.0523C11.4704 34.0523 12.3811 32.2451 12.3811 30.0678V23.4225H20.0796C21.3602 23.4225 22.1713 22.6256 22.1713 21.4161C22.1713 18.4136 19.7665 15.2403 15.7679 13.7889L15.2983 7.25732C17.3758 6.07625 19.0834 4.73863 19.8234 3.78523C20.1933 3.30141 20.3784 2.81759 20.3784 2.3907C20.3784 1.52268 19.7096 0.882324 18.7135 0.882324H3.54437C2.53404 0.882324 1.87946 1.52268 1.87946 2.3907C1.87946 2.81759 2.05023 3.30141 2.4202 3.78523C3.16016 4.73863 4.86775 6.07625 6.94532 7.25732L6.47573 13.7889C2.47712 15.2403 0.0722656 18.4136 0.0722656 21.4161Z" fill="#1C1C1E"/>
</svg>