<svg xmlns="http://www.w3.org/2000/svg" width="32" height="34" viewBox="0 0 32 34" fill="none">
  <path d="M30.6684 11.6652L19.1483 6.40741C17.9481 5.86755 16.9714 5.60934 15.9946 5.63281C15.0298 5.60934 14.053 5.86755 12.841 6.40741L1.33273 11.6652C0.579627 12.0056 0.214844 12.6041 0.214844 13.2027C0.214844 13.8012 0.579627 14.3881 1.33273 14.7402L6.18083 16.9466L13.6295 13.4609C13.5589 13.3788 13.5353 13.2848 13.5353 13.2027C13.5353 12.4633 14.7826 11.9 16.0417 11.9C17.3126 11.9 18.5364 12.4633 18.5364 13.2027C18.5364 13.9656 17.3126 14.5406 16.0417 14.5406C15.6534 14.5406 15.2651 14.4819 14.9238 14.3881L7.81646 17.7095L12.841 20.0098C14.053 20.5613 15.0298 20.7961 15.9946 20.7844C16.9714 20.7961 17.9481 20.5613 19.1483 20.0098L30.6684 14.7402C31.4215 14.3881 31.7863 13.8012 31.7863 13.2027C31.7863 12.6041 31.4215 12.0056 30.6684 11.6652ZM7.7694 19.4465V26.5821C9.74629 27.7792 12.5704 28.5068 15.9946 28.5068C22.9373 28.5068 27.4088 25.5376 27.4088 22.0284V17.9911L19.819 21.4534C18.4422 22.0871 17.195 22.404 15.9946 22.3923C14.8061 22.404 13.5471 22.0871 12.1703 21.4534L7.7694 19.4465ZM4.59225 17.9911V22.0284C4.59225 23.0494 5.18061 24.3169 6.23966 25.3967V18.754L4.59225 17.9911ZM6.23966 29.3049H7.7694V26.5821C7.18103 26.23 6.66328 25.831 6.23966 25.3967V29.3049ZM5.31005 29.3871V32.4737C5.31005 33.4009 5.91018 33.9994 6.83979 33.9994H7.1575C8.08711 33.9994 8.68724 33.4009 8.68724 32.4737V29.3871C8.68724 28.4599 8.08711 27.8613 7.1575 27.8613H6.83979C5.91018 27.8613 5.31005 28.4599 5.31005 29.3871Z" fill="#1C1C1E"/>
</svg>