<svg xmlns="http://www.w3.org/2000/svg" width="22" height="36" viewBox="0 0 22 36" fill="none">
  <path d="M6.94187 33.8251H15.0599C19.6835 33.8251 21.9689 31.4514 21.929 26.704C21.8758 21.2823 21.8493 17.3441 21.7164 14.3905C21.3311 5.70495 18.9263 3.15593 11.0075 3.15593C3.0888 3.15593 0.670668 5.70495 0.285361 14.3905C0.152497 17.3441 0.125924 21.2823 0.0727781 26.704C0.0329189 31.4514 2.31818 33.8251 6.94187 33.8251ZM6.55655 28.4708C5.41392 28.4708 4.68317 27.7155 4.68317 26.5827V19.6234C4.68317 18.477 5.41392 17.7217 6.55655 17.7217H15.4585C16.5879 17.7217 17.3186 18.477 17.3186 19.6234V26.5827C17.3186 27.7155 16.5879 28.4708 15.4585 28.4708H6.55655ZM4.68317 22.9143H17.3186V21.3092H4.68317V22.9143ZM11.0075 0C8.45651 0 6.66284 1.7533 6.66284 4.14048H8.53624C8.53624 2.83225 9.546 1.90165 11.0075 1.90165C12.4557 1.90165 13.4788 2.83225 13.4788 4.14048H15.3522C15.3522 1.7533 13.5453 0 11.0075 0Z" fill="#1C1C1E"/>
</svg>