<svg xmlns="http://www.w3.org/2000/svg" width="22" height="27" viewBox="0 0 22 27" fill="none">
  <path d="M4.67745 26.9909H18.0117C20.5982 26.9909 21.904 25.6725 21.904 23.0609V4.01381C21.904 1.38965 20.6108 0.0712891 18.0117 0.0712891H14.8226C14.3956 0.0712891 14.1069 0.372628 14.1069 0.824637C14.1069 0.887417 14.1069 0.950195 14.1069 1.00042C14.1069 2.63267 13.0019 3.61203 11.3446 3.61203C9.68722 3.61203 8.58231 2.63267 8.58231 1.00042C8.58231 0.950195 8.58231 0.887417 8.58231 0.824637C8.58231 0.372628 8.29352 0.0712891 7.86663 0.0712891H4.67745C2.0784 0.0712891 0.785156 1.38965 0.785156 4.01381V23.0609C0.785156 25.6725 2.09096 26.9909 4.67745 26.9909ZM6.58593 9.42536C6.13393 9.42536 5.80748 9.08635 5.80748 8.63435C5.80748 8.20745 6.13393 7.86844 6.58593 7.86844H16.1158C16.5553 7.86844 16.8817 8.20745 16.8817 8.63435C16.8817 9.08635 16.5553 9.42536 16.1158 9.42536H6.58593ZM6.58593 13.8826C6.13393 13.8826 5.80748 13.5436 5.80748 13.1168C5.80748 12.6773 6.13393 12.3383 6.58593 12.3383H11.0935C11.5455 12.3383 11.872 12.6773 11.872 13.1168C11.872 13.5436 11.5455 13.8826 11.0935 13.8826H6.58593Z" fill="#262626"/>
</svg>